<svg width="168" height="31" viewBox="0 0 168 31" fill="none" xmlns="http://www.w3.org/2000/svg">
<path d="M-3.88622e-05 29.72V0.52H7.43996V29.72H-3.88622e-05ZM12.6356 29.72V0.52H19.9156V29.72H12.6356ZM10.1556 5.8V0.52H19.9156V5.8H10.1556ZM24.4843 29.72V7.64H30.2443V17.16H29.9243C29.9243 14.8667 30.2043 12.9733 30.7643 11.48C31.351 9.96 32.2043 8.82667 33.3243 8.08C34.4443 7.30667 35.8177 6.92 37.4443 6.92H37.7643C39.4177 6.92 40.791 7.30667 41.8843 8.08C43.0043 8.82667 43.8443 9.96 44.4043 11.48C44.991 12.9733 45.2843 14.8667 45.2843 17.16H43.6043C43.6043 14.8667 43.8843 12.9733 44.4443 11.48C45.031 9.96 45.8843 8.82667 47.0043 8.08C48.1243 7.30667 49.4977 6.92 51.1243 6.92H51.4443C53.0977 6.92 54.4843 7.30667 55.6043 8.08C56.751 8.82667 57.6177 9.96 58.2043 11.48C58.8177 12.9733 59.1243 14.8667 59.1243 17.16V29.72H51.8443V16.96C51.8443 15.9467 51.5643 15.1067 51.0043 14.44C50.471 13.7467 49.6977 13.4 48.6843 13.4C47.671 13.4 46.871 13.7467 46.2843 14.44C45.7243 15.1067 45.4443 15.9733 45.4443 17.04V29.72H38.1643V16.96C38.1643 15.9467 37.8843 15.1067 37.3243 14.44C36.791 13.7467 36.0177 13.4 35.0043 13.4C33.991 13.4 33.191 13.7467 32.6043 14.44C32.0443 15.1067 31.7643 15.9733 31.7643 17.04V29.72H24.4843ZM82.0956 29.72V0.52H89.5356V29.72H82.0956ZM63.5356 29.72V0.52H70.9756V29.72H63.5356ZM69.6956 18.24V11.76H83.3756V18.24H69.6956ZM101.73 30.44C99.223 30.44 97.2763 29.6267 95.8897 28C94.5297 26.3467 93.8497 23.8267 93.8497 20.44V7.64H101.13V20.64C101.13 21.6267 101.423 22.4267 102.01 23.04C102.596 23.6533 103.383 23.96 104.37 23.96C105.356 23.96 106.156 23.6533 106.77 23.04C107.383 22.4267 107.69 21.6 107.69 20.56V7.64H114.97V29.72H109.21V20.44H109.61C109.61 22.7067 109.316 24.5867 108.73 26.08C108.17 27.5467 107.33 28.64 106.21 29.36C105.09 30.08 103.703 30.44 102.05 30.44H101.73ZM133.785 30.44C131.972 30.44 130.385 30.0667 129.025 29.32C127.692 28.5733 126.639 27.48 125.865 26.04C125.119 24.6 124.719 22.84 124.665 20.76H125.305V29.72H119.545V0.52H126.825V15.56L125.225 17.16C125.305 15 125.719 13.16 126.465 11.64C127.212 10.12 128.239 8.97333 129.545 8.2C130.879 7.4 132.412 7 134.145 7C135.639 7 136.985 7.28 138.185 7.84C139.385 8.37333 140.399 9.14667 141.225 10.16C142.079 11.1467 142.732 12.32 143.185 13.68C143.639 15.04 143.865 16.5333 143.865 18.16V19.12C143.865 20.7467 143.639 22.2533 143.185 23.64C142.732 25 142.065 26.2 141.185 27.24C140.305 28.2533 139.239 29.04 137.985 29.6C136.759 30.16 135.359 30.44 133.785 30.44ZM131.705 24.44C132.665 24.44 133.505 24.2 134.225 23.72C134.972 23.2133 135.545 22.52 135.945 21.64C136.372 20.76 136.585 19.76 136.585 18.64C136.585 17.4933 136.372 16.5067 135.945 15.68C135.545 14.8267 134.985 14.1733 134.265 13.72C133.545 13.24 132.692 13 131.705 13C130.825 13 129.999 13.2 129.225 13.6C128.479 14 127.865 14.5867 127.385 15.36C126.905 16.1333 126.665 17.0667 126.665 18.16V19.52C126.665 20.56 126.919 21.4533 127.425 22.2C127.932 22.92 128.572 23.48 129.345 23.88C130.119 24.2533 130.905 24.44 131.705 24.44ZM146.186 17.28L152.626 0H161.506L167.946 17.28H161.786L157.666 5.2H156.666L152.506 17.28H146.186Z" fill="black"/>
</svg>
