<svg width="65" height="65" viewBox="0 0 65 65" fill="none" xmlns="http://www.w3.org/2000/svg">
<rect width="65" height="65" rx="20" fill="white"/>
<path d="M25.6 50V22.4H34.7V50H25.6ZM22.1 29V22.4H34.7V29H22.1ZM29.35 20.2C27.6833 20.2 26.45 19.7833 25.65 18.95C24.8833 18.0833 24.5 16.9833 24.5 15.65C24.5 14.3167 24.8833 13.2333 25.65 12.4C26.45 11.5333 27.6667 11.1 29.3 11.1C30.9667 11.1 32.1833 11.5333 32.95 12.4C33.7167 13.2333 34.1 14.3167 34.1 15.65C34.1 16.9833 33.7167 18.0833 32.95 18.95C32.1833 19.7833 30.9833 20.2 29.35 20.2ZM39.0898 50V40.1H48.8898V50H39.0898Z" fill="black"/>
</svg>
