<svg width="65" height="65" viewBox="0 0 65 65" fill="none" xmlns="http://www.w3.org/2000/svg">
<rect width="65" height="65" rx="20" fill="white"/>
<path d="M24.68 46V23.92H31.96V46H24.68ZM21.88 29.2V23.92H31.96V29.2H21.88ZM27.68 22.16C26.3467 22.16 25.36 21.8267 24.72 21.16C24.1067 20.4667 23.8 19.5867 23.8 18.52C23.8 17.4533 24.1067 16.5867 24.72 15.92C25.36 15.2267 26.3333 14.88 27.64 14.88C28.9733 14.88 29.9467 15.2267 30.56 15.92C31.1733 16.5867 31.48 17.4533 31.48 18.52C31.48 19.5867 31.1733 20.4667 30.56 21.16C29.9467 21.8267 28.9867 22.16 27.68 22.16ZM35.4719 46V38.08H43.3119V46H35.4719Z" fill="black"/>
</svg>
